<?xml version="1.0" standalone="no"?>
<!DOCTYPE svg PUBLIC "-//W3C//DTD SVG 20010904//EN"
 "http://www.w3.org/TR/2001/REC-SVG-20010904/DTD/svg10.dtd">
<svg version="1.0" xmlns="http://www.w3.org/2000/svg"
 width="199.000000pt" height="199.000000pt" viewBox="0 0 199.000000 199.000000"
 preserveAspectRatio="xMidYMid meet">

<g transform="translate(0.000000,199.000000) scale(0.100000,-0.100000)"
fill="#000000" stroke="none">
<path d="M1753 1855 c-57 -24 -71 -88 -28 -130 60 -61 162 3 134 83 -8 24 -30
42 -69 58 -3 1 -19 -4 -37 -11z m77 -25 c41 -41 10 -120 -47 -120 -29 0 -73
42 -73 68 0 59 79 93 120 52z"/>
<path d="M1737 1804 c7 -3 10 -11 7 -19 -3 -7 0 -16 7 -21 8 -5 11 -2 6 8 -3
9 0 21 6 27 8 8 5 11 -13 10 -14 0 -20 -3 -13 -5z"/>
<path d="M1781 1778 c0 -28 2 -30 9 -13 12 28 12 45 0 45 -5 0 -10 -15 -9 -32z"/>
<path d="M1821 1798 c0 -7 4 -22 9 -33 7 -17 9 -15 9 13 1 17 -3 32 -9 32 -5
0 -10 -6 -9 -12z"/>
<path d="M1800 1765 c0 -8 5 -15 10 -15 6 0 10 7 10 15 0 8 -4 15 -10 15 -5 0
-10 -7 -10 -15z"/>
<path d="M1180 1725 l0 -95 97 0 98 0 -95 95 c-52 52 -96 95 -97 95 -2 0 -3
-43 -3 -95z"/>
<path d="M802 1669 c0 -71 -1 -132 -3 -134 -2 -2 -35 26 -72 61 -38 35 -70 64
-73 64 -2 0 -4 -124 -4 -275 l0 -275 282 0 282 0 -74 75 -74 75 149 0 150 0
-274 270 c-151 149 -278 270 -282 270 -4 0 -7 -59 -7 -131z"/>
<path d="M266 1020 c-37 -11 -83 -55 -107 -102 -10 -21 -19 -40 -19 -43 0 -3
107 -5 238 -5 l238 0 18 70 c10 39 16 73 13 76 -9 9 -351 12 -381 4z"/>
<path d="M841 1007 c-40 -21 -111 -103 -111 -128 0 -6 108 -8 257 -7 l258 3
16 70 c9 39 15 73 13 76 -2 4 -91 8 -197 8 -184 2 -194 1 -236 -22z"/>
<path d="M1374 1015 c-6 -18 -34 -133 -34 -139 0 -3 42 -6 94 -6 82 0 95 2 99
18 18 65 28 123 22 132 -9 14 -176 9 -181 -5z"/>
<path d="M1641 945 l-62 -75 114 0 115 0 49 58 c87 102 91 92 -39 92 l-115 0
-62 -75z"/>
<path d="M101 723 c-29 -129 -34 -175 -22 -219 24 -91 93 -117 294 -113 70 2
127 4 127 5 0 1 9 37 20 80 11 44 20 82 20 86 0 4 -60 9 -132 10 l-133 3 -3
27 c-2 15 6 60 18 100 12 40 24 81 26 91 5 15 -4 17 -94 17 l-100 0 -21 -87z"/>
<path d="M720 761 c0 -37 6 -57 23 -76 21 -25 28 -27 127 -30 86 -3 106 -6
117 -21 15 -21 16 -24 3 -44 -7 -12 -42 -16 -172 -20 l-162 -5 -18 -74 c-11
-41 -17 -80 -14 -87 7 -18 380 -20 441 -3 83 23 145 125 145 238 0 68 -23 118
-69 148 -32 22 -43 23 -227 23 l-194 0 0 -49z"/>
<path d="M1316 793 c-12 -46 -89 -368 -90 -381 -1 -12 15 -14 79 -14 44 0 87
1 95 1 11 1 24 36 45 122 l30 121 23 -53 c13 -30 37 -84 54 -121 l31 -68 66
-2 c81 -2 122 0 127 5 5 5 -51 137 -90 214 -14 29 -26 58 -26 66 0 7 23 39 51
70 l51 57 -221 0 c-201 0 -220 -2 -225 -17z"/>
<path d="M632 268 c-13 -13 -16 -48 -4 -63 4 -5 17 -16 30 -23 19 -10 23 -10
21 0 -1 7 -1 22 0 33 2 19 3 18 11 -2 6 -15 18 -23 33 -23 20 0 24 5 22 27 -1
34 -22 42 -28 11 l-4 -23 -2 24 c-1 16 -5 21 -16 17 -9 -3 -15 0 -15 8 0 8 -7
17 -16 20 -20 8 -18 8 -32 -6z m28 -35 c0 -19 -3 -24 -10 -17 -6 6 -8 18 -4
27 9 24 14 21 14 -10z"/>
<path d="M820 236 c0 -25 5 -46 10 -46 6 0 10 18 10 39 0 22 -4 43 -10 46 -6
4 -10 -12 -10 -39z"/>
<path d="M850 236 c0 -49 19 -65 21 -18 1 27 1 27 8 3 9 -35 34 -41 25 -7 -8
32 3 34 15 4 5 -14 5 -28 -1 -35 -7 -9 -7 -13 1 -13 7 0 19 16 27 35 18 43 18
67 1 44 -11 -14 -14 -14 -31 3 -22 20 -36 23 -36 8 0 -5 -5 -10 -11 -10 -5 0
-8 4 -4 9 3 5 1 12 -5 16 -6 4 -10 -11 -10 -39z"/>
<path d="M1003 273 c-7 -2 -13 -20 -13 -39 0 -38 21 -54 49 -37 11 7 22 7 34
-1 15 -9 21 -7 33 8 12 17 14 18 14 3 0 -11 8 -17 25 -17 21 0 25 5 25 30 0
35 -17 40 -23 8 l-4 -23 -2 23 c-1 22 -21 32 -21 10 0 -6 -9 -3 -20 7 -19 17
-21 17 -44 -8 -31 -34 -46 -34 -46 -2 0 26 15 34 23 13 2 -7 8 -10 12 -6 4 4
2 14 -5 23 -13 16 -17 17 -37 8z m84 -55 c-3 -8 -6 -5 -6 6 -1 11 2 17 5 13 3
-3 4 -12 1 -19z"/>
<path d="M160 260 c0 -14 347 -14 355 0 4 7 -57 10 -174 10 -114 0 -181 -4
-181 -10z"/>
<path d="M1240 261 c0 -6 -13 -11 -30 -11 -27 0 -30 -3 -30 -30 0 -38 17 -39
23 -2 l4 27 2 -27 c0 -16 6 -28 11 -28 6 0 10 12 11 28 l1 27 7 -25 c5 -20 14
-25 44 -27 35 -3 37 -2 37 26 0 16 -6 31 -15 34 -17 7 -29 -8 -21 -28 3 -9 -1
-15 -10 -15 -10 0 -14 8 -12 26 2 15 -3 29 -9 31 -7 3 -13 0 -13 -6z"/>
<path d="M1430 260 c0 -6 65 -10 175 -10 110 0 175 4 175 10 0 6 -65 10 -175
10 -110 0 -175 -4 -175 -10z"/>
<path d="M773 252 c-6 -4 -13 -18 -14 -32 -3 -20 0 -25 24 -27 22 -1 27 2 27
21 0 27 -21 48 -37 38z"/>
<path d="M160 230 c0 -6 65 -10 175 -10 110 0 175 4 175 10 0 6 -65 10 -175
10 -110 0 -175 -4 -175 -10z"/>
<path d="M1430 230 c0 -6 65 -10 175 -10 110 0 175 4 175 10 0 6 -65 10 -175
10 -110 0 -175 -4 -175 -10z"/>
<path d="M160 200 c0 -6 65 -10 175 -10 110 0 175 4 175 10 0 6 -65 10 -175
10 -110 0 -175 -4 -175 -10z"/>
<path d="M1430 200 c0 -6 65 -10 175 -10 110 0 175 4 175 10 0 6 -65 10 -175
10 -110 0 -175 -4 -175 -10z"/>
</g>
</svg>
